<?xml version="1.0" standalone="no"?>
<!DOCTYPE svg PUBLIC "-//W3C//DTD SVG 20010904//EN"
 "http://www.w3.org/TR/2001/REC-SVG-20010904/DTD/svg10.dtd">
<svg version="1.0" xmlns="http://www.w3.org/2000/svg"
 width="512.000000pt" height="512.000000pt" viewBox="0 0 512.000000 512.000000"
 preserveAspectRatio="xMidYMid meet">

<g transform="translate(0.000000,512.000000) scale(0.100000,-0.100000)"
fill="#007acc" stroke="none">
<path d="M2555 5049 c-4 -39 -6 -121 -5 -183 5 -208 2 -214 -133 -239 -136
-25 -137 -26 -137 -97 0 -76 -20 -124 -61 -149 -18 -11 -90 -43 -160 -72 -153
-62 -187 -89 -333 -269 -112 -137 -244 -261 -562 -527 -215 -180 -234 -207
-216 -303 7 -40 7 -72 0 -101 -24 -108 26 -264 115 -352 52 -52 173 -104 270
-115 157 -18 270 24 430 162 153 131 209 144 397 89 58 -17 137 -38 177 -47
77 -17 249 -21 321 -7 l44 9 -38 -42 c-21 -22 -84 -88 -140 -146 -495 -511
-775 -964 -840 -1358 -16 -96 -15 -297 2 -379 6 -29 4 -33 -16 -33 -37 0 -91
-31 -111 -64 -11 -17 -19 -50 -19 -72 0 -39 -2 -42 -32 -48 -50 -9 -93 -40
-111 -79 -15 -30 -17 -75 -17 -331 l0 -296 1360 0 1360 0 0 292 c0 274 -1 294
-21 334 -15 31 -32 48 -63 63 -23 12 -50 21 -59 21 -13 0 -17 9 -17 38 0 81
-63 142 -147 142 l-43 0 0 88 c0 129 87 486 245 1001 130 424 170 624 182 911
21 520 -169 1033 -511 1376 -178 178 -357 289 -605 375 -51 18 -107 44 -123
57 -16 14 -57 65 -90 115 -60 90 -180 223 -249 278 l-37 29 -7 -71z"/>
</g>
</svg>
